REM DIRINDEX 1\2\4,1\2\5,1\2\6,1\3\7,1\3\8
REM DIRNAME cjc128,folder01,folder02,folder03,folder04,folder05,folder06,folder07
TITLE ""
FILE "010_Lesson 08_Output_Stage.mp3" MP3
  TRACK 01 AUDIO
    TITLE "0:"
    INDEX 01 00:00:00
  TRACK 02 AUDIO
    TITLE "6:cjc128_0512"
    INDEX 01 00:00:13
  TRACK 03 AUDIO
    TITLE "0:"
    INDEX 01 00:02:65
  TRACK 04 AUDIO
    TITLE "6:cjc128_0513"
    INDEX 01 00:03:25
  TRACK 05 AUDIO
    TITLE "0:"
    INDEX 01 00:05:14
  TRACK 06 AUDIO
    TITLE "4:cjc128_0514"
    INDEX 01 00:05:69
  TRACK 07 AUDIO
    TITLE "0:"
    INDEX 01 00:08:30
  TRACK 08 AUDIO
    TITLE "5:cjc128_0515"
    INDEX 01 00:11:42
  TRACK 09 AUDIO
    TITLE "0:"
    INDEX 01 00:14:13
  TRACK 10 AUDIO
    TITLE "6:cjc128_0516"
    INDEX 01 00:14:72
  TRACK 11 AUDIO
    TITLE "0:"
    INDEX 01 00:16:67
  TRACK 12 AUDIO
    TITLE "4:cjc128_0517"
    INDEX 01 00:17:47
  TRACK 13 AUDIO
    TITLE "0:"
    INDEX 01 00:20:49
  TRACK 14 AUDIO
    TITLE "5:cjc128_0518"
    INDEX 01 00:24:69
  TRACK 15 AUDIO
    TITLE "0:"
    INDEX 01 00:28:45
  TRACK 16 AUDIO
    TITLE "6:cjc128_0519"
    INDEX 01 00:29:29
  TRACK 17 AUDIO
    TITLE "0:"
    INDEX 01 00:31:04
  TRACK 18 AUDIO
    TITLE "4:cjc128_0520"
    INDEX 01 00:31:65
  TRACK 19 AUDIO
    TITLE "0:"
    INDEX 01 00:34:30
  TRACK 20 AUDIO
    TITLE "5:cjc128_0521"
    INDEX 01 00:37:12
  TRACK 21 AUDIO
    TITLE "0:"
    INDEX 01 00:39:39
  TRACK 22 AUDIO
    TITLE "6:cjc128_0522"
    INDEX 01 00:40:17
  TRACK 23 AUDIO
    TITLE "0:"
    INDEX 01 00:42:14
  TRACK 24 AUDIO
    TITLE "4:cjc128_0523"
    INDEX 01 00:42:74
  TRACK 25 AUDIO
    TITLE "0:"
    INDEX 01 00:45:47
  TRACK 26 AUDIO
    TITLE "5:cjc128_0524"
    INDEX 01 00:48:67
  TRACK 27 AUDIO
    TITLE "0:"
    INDEX 01 00:51:48
  TRACK 28 AUDIO
    TITLE "6:cjc128_0525"
    INDEX 01 00:52:30
  TRACK 29 AUDIO
    TITLE "0:"
    INDEX 01 00:54:48
  TRACK 30 AUDIO
    TITLE "4:cjc128_0526"
    INDEX 01 00:55:28
  TRACK 31 AUDIO
    TITLE "0:"
    INDEX 01 00:58:18
  TRACK 32 AUDIO
    TITLE "5:cjc128_0527"
    INDEX 01 01:01:29
  TRACK 33 AUDIO
    TITLE "0:"
    INDEX 01 01:04:07
  TRACK 34 AUDIO
    TITLE "6:cjc128_0528"
    INDEX 01 01:04:60
  TRACK 35 AUDIO
    TITLE "0:"
    INDEX 01 01:06:67
  TRACK 36 AUDIO
    TITLE "4:cjc128_0529"
    INDEX 01 01:07:53
  TRACK 37 AUDIO
    TITLE "0:"
    INDEX 01 01:10:71
  TRACK 38 AUDIO
    TITLE "5:cjc128_0530"
    INDEX 01 01:14:29
  TRACK 39 AUDIO
    TITLE "0:"
    INDEX 01 01:17:22
  TRACK 40 AUDIO
    TITLE "6:cjc128_0531"
    INDEX 01 01:18:06
  TRACK 41 AUDIO
    TITLE "0:"
    INDEX 01 01:20:08
  TRACK 42 AUDIO
    TITLE "4:cjc128_0532"
    INDEX 01 01:20:67
  TRACK 43 AUDIO
    TITLE "0:"
    INDEX 01 01:23:52
  TRACK 44 AUDIO
    TITLE "5:cjc128_0533"
    INDEX 01 01:26:27
  TRACK 45 AUDIO
    TITLE "0:"
    INDEX 01 01:28:27
  TRACK 46 AUDIO
    TITLE "6:cjc128_0534"
    INDEX 01 01:29:07
  TRACK 47 AUDIO
    TITLE "0:"
    INDEX 01 01:31:22
  TRACK 48 AUDIO
    TITLE "4:cjc128_0535"
    INDEX 01 01:31:73
  TRACK 49 AUDIO
    TITLE "0:"
    INDEX 01 01:35:12
  TRACK 50 AUDIO
    TITLE "5:cjc128_0536"
    INDEX 01 01:38:10
  TRACK 51 AUDIO
    TITLE "0:"
    INDEX 01 01:40:48
  TRACK 52 AUDIO
    TITLE "6:cjc128_0537"
    INDEX 01 01:41:26
  TRACK 53 AUDIO
    TITLE "0:"
    INDEX 01 01:43:31
  TRACK 54 AUDIO
    TITLE "4:cjc128_0538"
    INDEX 01 01:44:17
  TRACK 55 AUDIO
    TITLE "0:"
    INDEX 01 01:46:66
  TRACK 56 AUDIO
    TITLE "5:cjc128_0539"
    INDEX 01 01:49:59
  TRACK 57 AUDIO
    TITLE "0:"
    INDEX 01 01:52:30
  TRACK 58 AUDIO
    TITLE "6:cjc128_0540"
    INDEX 01 01:53:10
  TRACK 59 AUDIO
    TITLE "0:"
    INDEX 01 01:55:16
  TRACK 60 AUDIO
    TITLE "4:cjc128_0541"
    INDEX 01 01:56:00
  TRACK 61 AUDIO
    TITLE "0:"
    INDEX 01 01:58:23
  TRACK 62 AUDIO
    TITLE "5:cjc128_0542"
    INDEX 01 02:00:53
  TRACK 63 AUDIO
    TITLE "0:"
    INDEX 01 02:02:50
  TRACK 64 AUDIO
    TITLE "6:cjc128_0543"
    INDEX 01 02:03:32
  TRACK 65 AUDIO
    TITLE "0:"
    INDEX 01 02:05:33
  TRACK 66 AUDIO
    TITLE "4:cjc128_0544"
    INDEX 01 02:06:12
  TRACK 67 AUDIO
    TITLE "0:"
    INDEX 01 02:09:52
  TRACK 68 AUDIO
    TITLE "5:cjc128_0545"
    INDEX 01 02:13:28
  TRACK 69 AUDIO
    TITLE "0:"
    INDEX 01 02:16:40
  TRACK 70 AUDIO
    TITLE "6:cjc128_0546"
    INDEX 01 02:17:24
  TRACK 71 AUDIO
    TITLE "0:"
    INDEX 01 02:19:25
  TRACK 72 AUDIO
    TITLE "4:cjc128_0547"
    INDEX 01 02:20:03
  TRACK 73 AUDIO
    TITLE "0:"
    INDEX 01 02:24:08
  TRACK 74 AUDIO
    TITLE "5:cjc128_0548"
    INDEX 01 02:28:04
  TRACK 75 AUDIO
    TITLE "0:"
    INDEX 01 02:31:40
  TRACK 76 AUDIO
    TITLE "6:cjc128_0549"
    INDEX 01 02:32:25
  TRACK 77 AUDIO
    TITLE "0:"
    INDEX 01 02:33:70
  TRACK 78 AUDIO
    TITLE "4:cjc128_0550"
    INDEX 01 02:34:56
  TRACK 79 AUDIO
    TITLE "0:"
    INDEX 01 02:38:08
  TRACK 80 AUDIO
    TITLE "5:cjc128_0551"
    INDEX 01 02:41:21
  TRACK 81 AUDIO
    TITLE "0:"
    INDEX 01 02:43:70
  TRACK 82 AUDIO
    TITLE "6:cjc128_0552"
    INDEX 01 02:44:50
  TRACK 83 AUDIO
    TITLE "0:"
    INDEX 01 02:46:39
  TRACK 84 AUDIO
    TITLE "4:cjc128_0553"
    INDEX 01 02:47:25
  TRACK 85 AUDIO
    TITLE "0:"
    INDEX 01 02:52:38
  TRACK 86 AUDIO
    TITLE "5:cjc128_0554"
    INDEX 01 02:57:10
  TRACK 87 AUDIO
    TITLE "0:"
    INDEX 01 03:01:19
  TRACK 88 AUDIO
    TITLE "6:cjc128_0555"
    INDEX 01 03:01:70
  TRACK 89 AUDIO
    TITLE "0:"
    INDEX 01 03:03:63
  TRACK 90 AUDIO
    TITLE "4:cjc128_0556"
    INDEX 01 03:04:49
  TRACK 91 AUDIO
    TITLE "0:"
    INDEX 01 03:07:36
  TRACK 92 AUDIO
    TITLE "5:cjc128_0557"
    INDEX 01 03:10:34
  TRACK 93 AUDIO
    TITLE "0:"
    INDEX 01 03:12:74
  TRACK 94 AUDIO
    TITLE "6:cjc128_0558"
    INDEX 01 03:13:48
  TRACK 95 AUDIO
    TITLE "0:"
    INDEX 01 03:15:43
  TRACK 96 AUDIO
    TITLE "4:cjc128_0559"
    INDEX 01 03:16:31
  TRACK 97 AUDIO
    TITLE "0:"
    INDEX 01 03:19:72
  TRACK 98 AUDIO
    TITLE "5:cjc128_0560"
    INDEX 01 03:23:44
  TRACK 99 AUDIO
    TITLE "0:"
    INDEX 01 03:26:64
  TRACK 100 AUDIO
    TITLE "6:cjc128_0561"
    INDEX 01 03:27:44
  TRACK 101 AUDIO
    TITLE "0:"
    INDEX 01 03:29:35
  TRACK 102 AUDIO
    TITLE "4:cjc128_0562"
    INDEX 01 03:30:17
  TRACK 103 AUDIO
    TITLE "0:"
    INDEX 01 03:33:06
  TRACK 104 AUDIO
    TITLE "5:cjc128_0563"
    INDEX 01 03:35:34
  TRACK 105 AUDIO
    TITLE "0:"
    INDEX 01 03:37:25
  TRACK 106 AUDIO
    TITLE "6:cjc128_0564"
    INDEX 01 03:38:05
  TRACK 107 AUDIO
    TITLE "0:"
    INDEX 01 03:40:00
  TRACK 108 AUDIO
    TITLE "4:cjc128_0565"
    INDEX 01 03:40:57
  TRACK 109 AUDIO
    TITLE "0:"
    INDEX 01 03:43:53
  TRACK 110 AUDIO
    TITLE "5:cjc128_0566"
    INDEX 01 03:46:12
  TRACK 111 AUDIO
    TITLE "0:"
    INDEX 01 03:48:15
  TRACK 112 AUDIO
    TITLE "6:cjc128_0567"
    INDEX 01 03:48:68
  TRACK 113 AUDIO
    TITLE "0:"
    INDEX 01 03:50:65
  TRACK 114 AUDIO
    TITLE "4:cjc128_0568"
    INDEX 01 03:51:60
  TRACK 115 AUDIO
    TITLE "0:"
    INDEX 01 03:53:65
  TRACK 116 AUDIO
    TITLE "5:cjc128_0569"
    INDEX 01 03:56:12
  TRACK 117 AUDIO
    TITLE "0:"
    INDEX 01 03:58:11
  TRACK 118 AUDIO
    TITLE "6:cjc128_0570"
    INDEX 01 03:59:01
  TRACK 119 AUDIO
    TITLE "0:"
    INDEX 01 04:00:71
  TRACK 120 AUDIO
    TITLE "4:cjc128_0571"
    INDEX 01 04:01:53
  TRACK 121 AUDIO
    TITLE "0:"
    INDEX 01 04:04:30
  TRACK 122 AUDIO
    TITLE "5:cjc128_0572"
    INDEX 01 04:07:06
  TRACK 123 AUDIO
    TITLE "0:"
    INDEX 01 04:09:23
  TRACK 124 AUDIO
    TITLE "6:cjc128_0573"
    INDEX 01 04:10:07
  TRACK 125 AUDIO
    TITLE "0:"
    INDEX 01 04:11:67
  TRACK 126 AUDIO
    TITLE "4:cjc128_0574"
    INDEX 01 04:12:51
  TRACK 127 AUDIO
    TITLE "0:"
    INDEX 01 04:16:03
  TRACK 128 AUDIO
    TITLE "5:cjc128_0575"
    INDEX 01 04:19:15
  TRACK 129 AUDIO
    TITLE "0:"
    INDEX 01 04:21:67
  TRACK 130 AUDIO
    TITLE "6:cjc128_0576"
    INDEX 01 04:22:47
  TRACK 131 AUDIO
    TITLE "0:"
    INDEX 01 04:24:42
  TRACK 132 AUDIO
    TITLE "4:cjc128_0577"
    INDEX 01 04:25:20
  TRACK 133 AUDIO
    TITLE "0:"
    INDEX 01 04:28:61
  TRACK 134 AUDIO
    TITLE "5:cjc128_0578"
    INDEX 01 04:32:36
  TRACK 135 AUDIO
    TITLE "0:"
    INDEX 01 04:35:48
